::Release Info::
================
Release Title: Severance [2006] Christopher Smith
Encode date:

::IMDB and TMDB Info::
======================
TMDB Link: http://www.themoviedb.org/movie/5072
IMDB Link: http://www.imdb.com/title/tt0464196
Storyline: When weapons multi-national Palisade Defense reward their European sales division with a team-building weekend in the mountains of Eastern Europe, the team fight first amongst themselves, and later for survival against a group of war-crazed killers intent on revenge!
Genre: Horror | Action | Comedy | Thriller | Foreign
Release date: 19/05/2006

::Actors::
==========
Danny Dyer ... Steve
Laura Harris ... Maggie
Toby Stephens ... Harris
Tim McInnerny ... Richard
Babou Ceesay ... Billy
Andy Nyman ... Gordon
Claudie Blakley ... Jill
David Gilliam ... George
Juli Drajkó ... Olga
Judit Viktor ... Nadia
Sándor Boros ... Coach Driver

General
=======
Complete name : Severance [2006] Christopher Smith.avi
Format : AVI
Format/Info : Audio Video Interleave
File size : 499 MiB
Duration : 1h 31mn
Overall bit rate mode : Variable
Overall bit rate : 760 Kbps
Writing application : MEncoder SVN-r29274-snapshot-4.1.2
Writing library : MPlayer

Video
=====
ID : 0
Format : MPEG-4 Visual
Format profile : Advanced Simple@L5
Format settings, BVOP : 2
Format settings, QPel : No
Format settings, GMC : No warppoints
Format settings, Matrix : Default (H.263)
Codec ID : XVID
Codec ID/Hint : XviD
Duration : 1h 31mn
Bit rate : 665 Kbps
Width : 640 pixels
Height : 360 pixels
Display aspect ratio : 16:9
Frame rate : 25.000 fps
Color space : YUV
Chroma subsampling : 4:2:0
Bit depth : 8 bits
Scan type : Progressive
Compression mode : Lossy
Bits/(Pixel*Frame) : 0.115
Stream size : 437 MiB (88%)
Writing library : XviD 1.3.0.dev55

Audio
=====
ID : 1
Format : MPEG Audio
Format version : Version 1
Format profile : Layer 3
Mode : Joint stereo
Mode extension : MS Stereo
Codec ID : 55
Codec ID/Hint : MP3
Duration : 1h 31mn
Bit rate mode : Variable
Bit rate : 82.4 Kbps
Channel(s) : 2 channels
Sampling rate : 44.1 KHz
Compression mode : Lossy
Stream size : 54.2 MiB (11%)
Alignment : Aligned on interleaves
Interleave, duration : 26 ms (0.65 video frame)
Interleave, preload duration : 201 ms
Writing library : LAME3.98.2